<?xml version="1.0" encoding="UTF-8"?>
<svg id="Layer_1" xmlns="http://www.w3.org/2000/svg" version="1.1" viewBox="0 0 1024 755">
  <!-- Generator: Adobe Illustrator 30.0.0, SVG Export Plug-In . SVG Version: 2.1.1 Build 123)  -->
  <defs>
    <style>
      .st0 {
        fill: #fff;
      }
    </style>
  </defs>
  <path class="st0" d="M1024,0v755H0V0h1024ZM1016.48,403L512.62,8.05l-203.62,154.99v-53.04h-67v108.48L5.6,403h78.91l90.49-68.07v404.35l.72.72h671.56l.72-.72v-404.35l90.49,68.07h77.99Z"/>
  <path d="M1016.48,403h-77.99l-90.49-68.07v404.35l-.72.72H175.72l-.72-.72v-404.35l-90.49,68.07H5.6l236.4-184.52v-108.48h67v53.04L512.62,8.05l503.86,394.95ZM512.31,73.38l-63.66,47.66,63.59,56.85,60.52-52.73c1.11-1.17.82-2.88.31-4.23-1.06-2.76-11.8-11.12-14.76-13.56-9.99-8.27-20.81-16.75-31.28-24.4-2.18-1.6-12.96-9.75-14.72-9.59ZM429.75,134.76l-70.14,53.73c-.25,2.24-.97,5.73.68,7.46l66.98,58.18c5.72-4.25,11.17-8.92,16.57-13.56,10.71-9.2,21.99-19.04,32.16-28.8,2.72-2.61,17.32-16.66,17.27-19.22l-63.52-57.79ZM591.91,134.84l-63.59,56.76,68.39,64.47,68.37-64.41-73.17-56.82ZM337.99,205.4l-71.27,57.24,75.66,68.83,68.8-61.63-73.2-64.44ZM754.88,261.93l-70.71-56.58-70.88,64.97,64.01,61.65,77.58-70.04ZM443.84,270.55l66.06,61.41,67.82-59.79-65.57-63.95-68.31,62.32ZM695.36,345.45l68.4,64.78c6-7.71,14.94-12.23,22.09-18.7,8.66-7.83,9.76-12.08,10.33-23.75.88-17.95-1.43-35.92-1.96-53.76-.19-6.3.01-12.68.28-18.96l-24.25-18.74c-.39,4.52-5.89,7.04-9.13,9.83-21.28,18.34-40.61,38.86-62.16,56.88-1.01.85-2.34,2.01-3.59,2.42ZM248.45,279.32c-6.37.8-12.21,8.42-17.2,12.09-.88.64-2.94,1.11-3.25,2.03l-.58,87.31c.22,1.66,2.79,3.78,4.09,5.03,8.72,8.35,17.83,16.41,26.83,24.43l67.95-65.9-70.78-62.69c-2.36-1.75-3.97-2.68-7.06-2.29ZM493.2,345.52c-.14-.23-3.65-2.3-4.46-2.97-16.69-13.84-30.58-30.97-46.81-45.35-2.6-2.3-13.14-11.58-16.07-11.29l-64.08,62.12,65.89,59.74c9.91-7.94,19.65-16.19,29.13-24.65,10.4-9.27,25.11-21.53,33.58-32.18.85-1.07,3.55-4.17,2.81-5.43ZM528.43,344.1c-.29.5-.19,2.33-.08,3,.24,1.37,6.04,8.35,7.4,9.87,16.73,18.72,40.52,31.34,56.65,50.86l67.91-60.23-63.18-61.13-68.7,57.62ZM411.2,423.21l-68.4-61.47-65.99,64.1c15.88,14.8,30.93,30.57,47.02,45.13,2.44,2.21,16.6,15.02,18.48,15.09l68.88-62.85ZM678.89,361.81l-67.98,62.04,67.95,62.18,65.23-56.09c1.92-1.98,2.66-4.84,3.49-7.4l-68.7-60.73ZM443.84,423.21l65.58,60.44,65-55.38c2.06-2.05-.06-5.1.36-7.61l-62.61-56.46-68.33,59.02ZM227,413.12v23.76c0,.48,1.14.76,1.67.76,4.05,0,4.64-4.93,6.95-7.02,1.72-1.56,4.8-2.15,6.25-4.3l-14.87-13.2ZM794.72,437.12l-1.19-24-10.72,12.72,11.91,11.27ZM257.91,440.07c-8.25,9.78-21.28,17.17-28.26,27.9-3.73,5.73-3.51,12.62-3.75,19.29-.48,13.32-.15,27.06.52,40.32.2,4.01-.36,9.52,1.09,13.31,1.11,2.92,10.08,11.51,12.81,14.07,2.21,2.08,12.91,11.79,15.14,11.74l70.75-64.61-68.3-62.02ZM427.27,440.12l-67.88,61.63c-.16.93,9.57,9.12,11.01,10.49,12.38,11.75,24.32,24.05,36.95,35.53,2.38,2.17,15.52,14.2,17.54,14.15l68.35-62.22-65.97-59.58ZM591.99,440.07l-63.15,59.62,68.3,62.19c11.25-9.53,22.53-19.07,33.43-29,7.82-7.13,15.71-14.45,23.29-21.83,1.18-1.15,8.94-8.66,8.83-9.31l-70.7-61.67ZM695.39,501.45l68.95,65.19c.78.15,4.66-2.28,5.6-2.89,5.64-3.66,23.52-18.82,25.06-24.86l.12-69.26c-.45-2.21-5.9-7.23-7.8-9-7.52-7.05-16.49-12.61-23.14-20.58l-68.79,61.41ZM509.93,515.9l-68.45,62.03,70.76,64.16,65.99-64.1-68.3-62.1ZM679.28,517.85l-65.98,60.1,73.11,64.1,63.67-59.71-70.79-64.49ZM342.44,518.79c-12.38,7.63-23.26,17.72-33.97,27.53-10.24,9.38-21.86,20.07-31.21,30.23-.95,1.04-4.82,5.09-5.21,5.83-.63,1.22-1.01,3.1-.05,4.25l65.51,55.46,71.27-64.58-66.35-58.73ZM354.08,658.87l33.95,29.17c24.09-.02,48.43.64,72.39-.34l32.85-31.47-60.94-58.57c-2.99-2.33-5.63-5.54-9.87-3.62-21.4,20.86-43.89,40.59-65.5,61.22-.59.56-3.32,2.96-2.87,3.6ZM596.79,593.63l-68.46,64.53,33.93,29.9c20.59-.61,41.79,2.88,62.32,1.56,10.6-.68,23.62-11.86,31.43-18.97,2.59-2.37,10.02-9.35,11.54-11.98.69-1.19.59-2.45.35-3.77l-71.11-61.26ZM227,689h59.28c9.51-7.44,19.92-16.29,27.85-25.43,1.61-1.86,5.98-6.53,4.58-8.91l-63.15-55.81-28.56,25.59v64.56ZM795,689v-64.56c-4.89-5.8-10.71-11.26-16.57-16.07-2.59-2.13-10.23-8.48-13.07-9.04-.58-.11-1.12-.22-1.7-.01l-62.06,57.51.25,1.23,31.47,30.94h61.68ZM530.24,689l-20.4-16.82-16.08,16.82h36.48ZM353.6,689l-18.01-14.32-16.07,14.32h34.08ZM700.16,688.17l-16.08-13.94-16.08,13.22c6.46.79,12.94.52,19.43.72,3.82.12,7.61.67,11.53.48.54-.03,1.32.31,1.19-.47Z"/>
  <polygon class="st0" points="337.99 205.4 411.19 269.84 342.39 331.47 266.73 262.64 337.99 205.4"/>
  <polygon class="st0" points="754.88 261.93 677.29 331.97 613.29 270.32 684.16 205.35 754.88 261.93"/>
  <path class="st0" d="M342.44,518.79l66.35,58.73-71.27,64.58-65.51-55.46c-.95-1.15-.58-3.03.05-4.25.39-.75,4.25-4.79,5.21-5.83,9.34-10.17,20.97-20.85,31.21-30.23,10.7-9.81,21.59-19.89,33.97-27.53Z"/>
  <path class="st0" d="M678.89,361.81l68.7,60.73c-.83,2.56-1.57,5.43-3.49,7.4l-65.23,56.09-67.95-62.18,67.98-62.04Z"/>
  <polygon class="st0" points="509.93 515.9 578.23 578 512.24 642.1 441.48 577.93 509.93 515.9"/>
  <polygon class="st0" points="679.28 517.85 750.08 582.34 686.41 642.05 613.3 577.95 679.28 517.85"/>
  <path class="st0" d="M411.2,423.21l-68.88,62.85c-1.88-.07-16.04-12.89-18.48-15.09-16.1-14.56-31.15-30.33-47.02-45.13l65.99-64.1,68.4,61.47Z"/>
  <path class="st0" d="M429.75,134.76l63.52,57.79c.06,2.56-14.54,16.61-17.27,19.22-10.17,9.76-21.45,19.6-32.16,28.8-5.41,4.64-10.85,9.31-16.57,13.56l-66.98-58.18c-1.65-1.73-.93-5.22-.68-7.46l70.14-53.73Z"/>
  <polygon class="st0" points="443.84 270.55 512.16 208.23 577.73 272.17 509.91 331.97 443.84 270.55"/>
  <polygon class="st0" points="591.91 134.84 665.08 191.67 596.72 256.07 528.33 191.6 591.91 134.84"/>
  <path class="st0" d="M493.2,345.52c.74,1.25-1.96,4.35-2.81,5.43-8.47,10.65-23.18,22.91-33.58,32.18-9.48,8.45-19.22,16.7-29.13,24.65l-65.89-59.74,64.08-62.12c2.93-.29,13.47,8.99,16.07,11.29,16.23,14.38,30.11,31.51,46.81,45.35.81.67,4.33,2.74,4.46,2.97Z"/>
  <path class="st0" d="M591.99,440.07l70.7,61.67c.11.64-7.65,8.16-8.83,9.31-7.58,7.38-15.46,14.71-23.29,21.83-10.9,9.93-22.18,19.47-33.43,29l-68.3-62.19,63.15-59.62Z"/>
  <path class="st0" d="M427.27,440.12l65.97,59.58-68.35,62.22c-2.01.05-15.16-11.98-17.54-14.15-12.62-11.48-24.57-23.79-36.95-35.53-1.44-1.37-11.17-9.56-11.01-10.49l67.88-61.63Z"/>
  <path class="st0" d="M528.43,344.1l68.7-57.62,63.18,61.13-67.91,60.23c-16.13-19.52-39.92-32.14-56.65-50.86-1.36-1.52-7.16-8.5-7.4-9.87-.12-.67-.21-2.5.08-3Z"/>
  <path class="st0" d="M443.84,423.21l68.33-59.02,62.61,56.46c-.42,2.5,1.7,5.56-.36,7.61l-65,55.38-65.58-60.44Z"/>
  <path class="st0" d="M596.79,593.63l71.11,61.26c.24,1.32.34,2.58-.35,3.77-1.52,2.63-8.95,9.61-11.54,11.98-7.8,7.12-20.83,18.29-31.43,18.97-20.53,1.32-41.73-2.16-62.32-1.56l-33.93-29.9,68.46-64.53Z"/>
  <path class="st0" d="M354.08,658.87c-.45-.63,2.28-3.03,2.87-3.6,21.61-20.63,44.1-40.36,65.5-61.22,4.25-1.92,6.88,1.29,9.87,3.62l60.94,58.57-32.85,31.47c-23.96.98-48.29.31-72.39.34l-33.95-29.17Z"/>
  <path class="st0" d="M695.36,345.45c1.25-.41,2.57-1.57,3.59-2.42,21.55-18.02,40.88-38.53,62.16-56.88,3.24-2.79,8.74-5.32,9.13-9.83l24.25,18.74c-.26,6.28-.46,12.66-.28,18.96.53,17.84,2.84,35.81,1.96,53.76-.57,11.67-1.67,15.93-10.33,23.75-7.15,6.47-16.09,10.99-22.09,18.7l-68.4-64.78Z"/>
  <path class="st0" d="M248.03,279.32c3.09-.39,4.7.54,7.06,2.29l70.78,62.69-67.95,65.9c-9-8.03-18.11-16.08-26.83-24.43-1.3-1.25-3.87-3.36-4.09-5.03l.58-87.31c.31-.92,2.38-1.38,3.25-2.03,4.99-3.66,10.83-11.29,17.2-12.09Z"/>
  <path class="st0" d="M695.27,501.45l68.79-61.41c6.65,7.97,15.61,13.53,23.14,20.58,1.89,1.77,7.35,6.79,7.8,9l-.12,69.26c-1.54,6.04-19.42,21.2-25.06,24.86-.94.61-4.82,3.04-5.6,2.89l-68.95-65.19Z"/>
  <path class="st0" d="M257.91,440.07l68.3,62.02-70.75,64.61c-2.23.05-12.93-9.67-15.14-11.74-2.73-2.57-11.69-11.15-12.81-14.07-1.44-3.79-.89-9.31-1.09-13.31-.67-13.26-1-27-.52-40.32.24-6.67.02-13.56,3.75-19.29,6.98-10.73,20.01-18.12,28.26-27.9Z"/>
  <path class="st0" d="M512.31,73.38c1.75-.16,12.53,7.99,14.72,9.59,10.46,7.65,21.29,16.14,31.28,24.4,2.95,2.44,13.7,10.8,14.76,13.56.51,1.34.8,3.06-.31,4.23l-60.52,52.73-63.59-56.85,63.66-47.66Z"/>
  <path class="st0" d="M795,689h-61.68l-31.47-30.94-.25-1.23,62.06-57.51c.57-.21,1.12-.1,1.7.01,2.84.56,10.47,6.91,13.07,9.04,5.86,4.8,11.69,10.27,16.57,16.07v64.56Z"/>
  <path class="st0" d="M227,689v-64.56l28.56-25.59,63.15,55.81c1.4,2.38-2.97,7.05-4.58,8.91-7.92,9.14-18.34,17.99-27.85,25.43h-59.28Z"/>
  <polygon class="st0" points="530.24 689 493.76 689 509.84 672.18 530.24 689"/>
  <polygon class="st0" points="353.6 689 319.52 689 335.59 674.68 353.6 689"/>
  <path class="st0" d="M700.16,688.17c.13.79-.65.45-1.19.47-3.92.19-7.71-.36-11.53-.48-6.49-.2-12.98.07-19.43-.72l16.08-13.22,16.08,13.94Z"/>
  <path class="st0" d="M227,413.12l14.87,13.2c-1.46,2.15-4.54,2.74-6.25,4.3-2.31,2.09-2.9,7.01-6.95,7.02-.53,0-1.67-.27-1.67-.76v-23.76Z"/>
  <polygon class="st0" points="794.72 437.12 782.81 425.84 793.52 413.12 794.72 437.12"/>
</svg>
